<?xml version="1.0" encoding="UTF-8"?>
<svg width="446px" height="73px" viewBox="0 0 446 73" version="1.1" xmlns="http://www.w3.org/2000/svg" xmlns:xlink="http://www.w3.org/1999/xlink">
    <g id="logo_white" transform="translate(0.900000, 0.400000)" fill="#FFFFFF" fill-rule="nonzero">
        <path d="M441.6,70.4 L367.5,70.4 C366.3,70.4 365.4,70.1 364.9,69.6 C364.4,69.1 364.1,68.2 364.1,67 L364.1,4.9 C364.1,3.7 364.4,2.8 364.9,2.3 C365.4,1.8 366.3,1.5 367.5,1.5 L441.6,1.5 C442.8,1.5 443.7,1.8 444.2,2.3 C444.7,2.8 445,3.7 445,4.9 L445,16.1 C445,17.3 444.7,18.2 444.2,18.7 C443.7,19.2 442.8,19.5 441.6,19.5 L385.5,19.5 L385.5,26.9 L423.8,26.9 C425,26.9 425.9,27.2 426.4,27.7 C426.9,28.2 427.2,29.1 427.2,30.3 L427.2,40.6 C427.2,41.8 426.9,42.7 426.4,43.2 C425.9,43.7 425,44 423.8,44 L385.5,44 L385.5,52.2 L441.6,52.2 C442.8,52.2 443.7,52.5 444.2,53 C444.7,53.5 445,54.4 445,55.6 L445,66.8 C445,68 444.7,68.9 444.2,69.4 C443.7,70.1 442.9,70.4 441.6,70.4 Z" id="e" class="letter"></path>
        <path d="M291.4,70.4 L276.5,70.4 C275.3,70.4 274.4,70.1 273.9,69.6 C273.4,69.1 273.1,68.2 273.1,67 L273.1,4.9 C273.1,3.7 273.4,2.8 273.9,2.3 C274.4,1.8 275.3,1.5 276.5,1.5 L291.4,1.5 C292.6,1.5 293.5,1.8 294,2.3 C294.5,2.8 294.8,3.7 294.8,4.9 L294.8,26.9 L306.5,26.9 L326.4,4.6 C327.5,3.3 328.4,2.6 329.2,2.2 C330,1.8 331,1.5 332.2,1.5 L350,1.5 C351.1,1.5 351.8,1.8 352.2,2.3 C352.6,2.8 352.6,3.6 352.1,4.6 L332.3,26.9 C344.9,26.9 348.7,28.4 350.9,30.7 C353,33 354.1,36.1 354.1,39.9 L354.1,66.9 C354.1,68.1 353.8,69 353.3,69.5 C352.8,70 351.9,70.3 350.7,70.3 L335.9,70.3 C334.7,70.3 333.8,70 333.3,69.5 C332.8,69 332.5,68.1 332.5,66.9 L332.5,48.2 C332.5,47.2 332.2,46.4 331.7,45.8 C331.2,45.2 330.4,44.9 329.4,44.9 L294.8,44.9 L294.8,66.8 C294.8,68 294.5,68.9 294,69.4 C293.5,70.1 292.6,70.4 291.4,70.4 Z" id="k" class="letter"></path>
        <path d="M263.5,52.3 C263.5,55.2 263.1,57.9 262.2,60.3 C261.3,62.7 259.8,64.7 257.6,66.4 C255.4,68.1 252.4,69.4 248.5,70.4 C244.6,71.4 228.7,71.8 222.8,71.8 C216.9,71.8 200.9,71.3 197,70.4 C193.1,69.4 190.1,68.1 187.8,66.4 C185.6,64.7 184.1,62.7 183.2,60.3 C182.3,57.9 181.9,55.2 181.9,52.3 L181.9,19.6 C181.9,16.7 182.3,14 183.2,11.6 C184.1,9.2 185.6,7.1 187.8,5.4 C190,3.7 193.1,2.3 197,1.4 C200.9,0.4 216.8,-2.84217094e-14 222.8,-2.84217094e-14 C228.7,-2.84217094e-14 244.6,0.5 248.5,1.4 C252.4,2.4 255.4,3.7 257.6,5.4 C259.8,7.1 261.3,9.2 262.2,11.6 C263.1,14 263.5,16.7 263.5,19.6 L263.5,52.3 Z M203.8,48.8 C203.8,50.1 204.3,51.1 205.2,52 C206.2,52.9 219.4,53.3 222.8,53.3 C226.2,53.3 239.5,52.9 240.4,52 C241.4,51.1 241.8,50.1 241.8,48.8 L241.8,23 C241.8,21.8 241.3,20.7 240.4,19.9 C239.4,19 226.2,18.6 222.8,18.6 C219.4,18.6 206.1,19 205.2,19.9 C204.2,20.8 203.8,21.8 203.8,23 L203.8,48.8 Z" id="o" class="letter"></path>
        <path d="M171.2,2.2 C170.7,1.7 169.8,1.4 168.6,1.4 L153.4,1.4 C152.2,1.4 151.3,1.7 150.6,2.2 C150,2.7 149.6,3.6 149.6,4.8 L149.6,31.2 C149.6,31.8 149.5,32.5 149.4,33.1 C149.3,33.9 149,34.4 148.6,34.9 C148.6,34.9 133.9,49.6 133.6,49.8 C133.3,50 133,50.1 132.5,50.1 L131.5,50.1 L130.5,50.1 C130,50.1 129.6,50 129.4,49.8 C129.2,49.6 114.7,35.2 114.4,34.9 C114.1,34.6 113.8,33.8 113.6,33.1 C113.5,32.5 113.4,31.8 113.4,31.2 L113.4,4.8 C113.4,3.6 113.1,2.7 112.4,2.2 C111.8,1.7 110.8,1.4 109.6,1.4 L94.4,1.4 C93.2,1.4 92.3,1.7 91.8,2.2 C91.3,2.7 91,3.6 91,4.8 L91,30.1 C91,31.6 91,32.9 91.1,34 C91.2,35.1 91.3,36.1 91.6,37 C93.7,43.2 116.3,68 118.3,69.7 C119,70.3 120.1,70.4 121.3,70.4 L131.5,70.4 L141.7,70.4 C142.9,70.4 144,70.3 144.7,69.7 C146.7,68 169.2,43.2 171.4,37 C171.7,36.1 171.8,35 171.9,34 C172,32.9 172,31.7 172,30.1 L172,4.8 C172,3.6 171.7,2.7 171.2,2.2 Z" id="v" class="letter"></path>
        <path d="M77.5,70.4 L3.4,70.4 C2.2,70.4 1.3,70.1 0.8,69.6 C0.3,69.1 2.84217094e-14,68.2 2.84217094e-14,67 L2.84217094e-14,4.9 C2.84217094e-14,3.7 0.3,2.8 0.8,2.3 C1.3,1.8 2.2,1.5 3.4,1.5 L77.5,1.5 C78.7,1.5 79.6,1.8 80.1,2.3 C80.6,2.8 80.9,3.7 80.9,4.9 L80.9,16.1 C80.9,17.3 80.6,18.2 80.1,18.7 C79.6,19.2 78.7,19.5 77.5,19.5 L21.4,19.5 L21.4,26.9 L59.7,26.9 C60.9,26.9 61.8,27.2 62.3,27.7 C62.8,28.2 63.1,29.1 63.1,30.3 L63.1,40.6 C63.1,41.8 62.8,42.7 62.3,43.2 C61.8,43.7 60.9,44 59.7,44 L21.4,44 L21.4,52.2 L77.5,52.2 C78.7,52.2 79.6,52.5 80.1,53 C80.6,53.5 80.9,54.4 80.9,55.6 L80.9,66.8 C80.9,68 80.6,68.9 80.1,69.4 C79.6,70.1 78.7,70.4 77.5,70.4 Z" id="e" class="letter"></path>
    </g>
</svg>